<svg width="24" height="24" viewBox="0 0 24 24" fill="none" xmlns="http://www.w3.org/2000/svg">
<path d="M15.5 16L8.5 10L14 4.5L20 10.5L15.5 16Z" fill="white" stroke="white" stroke-linejoin="round"/>
<mask id="path-2-outside-1" maskUnits="userSpaceOnUse" x="2.5" y="4" width="18" height="18" fill="black">
<rect fill="white" x="2.5" y="4" width="18" height="18"/>
<path d="M11 20.5H7L4 17.5C4 17.5 3.5 17 3.5 16.5C3.5 16 4 15.5 4 15.5L13 5.5C13 5.5 13.5 5 14 5C14.5 5 15 5.5 15 5.5L19 9.5C19 9.5 19.5 10 19.5 10.5C19.5 11 19 11.5 19 11.5L11 20.5Z"/>
</mask>
<path d="M20 21.5C20.2761 21.5 20.5 21.2761 20.5 21C20.5 20.7239 20.2761 20.5 20 20.5V21.5ZM7 21.5H20V20.5H7V21.5ZM7 20.5L6.29289 21.2071C6.48043 21.3946 6.73478 21.5 7 21.5V20.5ZM11 20.5V21.5C11.2856 21.5 11.5576 21.3779 11.7474 21.1644L11 20.5ZM13 5.5L12.2929 4.79289C12.2805 4.80529 12.2684 4.81801 12.2567 4.83104L13 5.5ZM19 11.5L18.2929 10.7929C18.279 10.8067 18.2656 10.821 18.2526 10.8356L19 11.5ZM4 15.5L4.70711 16.2071C4.7195 16.1947 4.73157 16.182 4.74329 16.169L4 15.5ZM7 21.5H11V19.5H7V21.5ZM14 4C13.4494 4 12.9951 4.25975 12.7578 4.41795C12.6229 4.50789 12.5124 4.59638 12.4351 4.66262C12.396 4.69619 12.364 4.72522 12.3401 4.74746C12.3282 4.75861 12.3182 4.76814 12.3103 4.77578C12.3064 4.77961 12.3029 4.78296 12.3 4.78582C12.2986 4.78726 12.2972 4.78856 12.2961 4.78974C12.2955 4.79033 12.2949 4.79089 12.2944 4.79141C12.2941 4.79168 12.2939 4.79193 12.2936 4.79218C12.2935 4.7923 12.2933 4.79248 12.2932 4.79254C12.2931 4.79272 12.2929 4.79289 13 5.5C13.7071 6.20711 13.7069 6.20728 13.7068 6.20745C13.7067 6.2075 13.7065 6.20767 13.7064 6.20778C13.7062 6.20799 13.706 6.2082 13.7058 6.2084C13.7054 6.20881 13.705 6.20918 13.7047 6.20953C13.704 6.21023 13.7034 6.21082 13.7029 6.21131C13.7019 6.21227 13.7013 6.21283 13.7012 6.21299C13.7008 6.2133 13.7021 6.21209 13.7048 6.20957C13.7102 6.20447 13.7212 6.19444 13.7367 6.18113C13.7688 6.15362 13.8146 6.11711 13.8672 6.08205C14.0049 5.99025 14.0506 6 14 6V4ZM15 5.5C15.7071 4.79289 15.7069 4.79272 15.7068 4.79254C15.7067 4.79248 15.7065 4.7923 15.7064 4.79218C15.7061 4.79193 15.7059 4.79168 15.7056 4.79141C15.7051 4.79089 15.7045 4.79033 15.7039 4.78974C15.7028 4.78856 15.7014 4.78726 15.7 4.78582C15.6971 4.78296 15.6936 4.77961 15.6897 4.77578C15.6818 4.76814 15.6718 4.75861 15.6599 4.74746C15.636 4.72522 15.604 4.69619 15.5649 4.66262C15.4876 4.59638 15.3771 4.50789 15.2422 4.41795C15.0049 4.25975 14.5506 4 14 4V6C13.9494 6 13.9951 5.99025 14.1328 6.08205C14.1854 6.11711 14.2312 6.15362 14.2633 6.18113C14.2788 6.19444 14.2898 6.20447 14.2952 6.20957C14.2979 6.21209 14.2992 6.2133 14.2988 6.21299C14.2987 6.21283 14.2981 6.21227 14.2971 6.21131C14.2966 6.21082 14.296 6.21023 14.2953 6.20953C14.295 6.20918 14.2946 6.20881 14.2942 6.2084C14.294 6.2082 14.2938 6.20799 14.2936 6.20778C14.2935 6.20767 14.2933 6.2075 14.2932 6.20745C14.2931 6.20728 14.2929 6.20711 15 5.5ZM20.5 10.5C20.5 9.94942 20.2403 9.49511 20.0821 9.2578C19.9921 9.12288 19.9036 9.01243 19.8374 8.93515C19.8038 8.89598 19.7748 8.86397 19.7525 8.84014C19.7414 8.8282 19.7319 8.81821 19.7242 8.81032C19.7204 8.80637 19.717 8.80293 19.7142 8.80002C19.7127 8.79857 19.7114 8.79725 19.7103 8.79606C19.7097 8.79546 19.7091 8.7949 19.7086 8.79438C19.7083 8.79411 19.7081 8.79386 19.7078 8.79361C19.7077 8.79349 19.7075 8.79331 19.7075 8.79324C19.7073 8.79307 19.7071 8.79289 19 9.5C18.2929 10.2071 18.2927 10.2069 18.2926 10.2068C18.2925 10.2067 18.2923 10.2065 18.2922 10.2064C18.292 10.2062 18.2918 10.206 18.2916 10.2058C18.2912 10.2054 18.2908 10.205 18.2905 10.2047C18.2898 10.204 18.2892 10.2034 18.2887 10.2029C18.2877 10.2019 18.2872 10.2013 18.287 10.2012C18.2867 10.2008 18.2879 10.2021 18.2904 10.2048C18.2955 10.2102 18.3056 10.2212 18.3189 10.2367C18.3464 10.2688 18.3829 10.3146 18.4179 10.3672C18.5097 10.5049 18.5 10.5506 18.5 10.5H20.5ZM19.7071 8.79289L15.7071 4.79289L14.2929 6.20711L18.2929 10.2071L19.7071 8.79289ZM11.7474 21.1644L19.7474 12.1644L18.2526 10.8356L10.2526 19.8356L11.7474 21.1644ZM19 11.5C19.7071 12.2071 19.7073 12.2069 19.7075 12.2068C19.7075 12.2067 19.7077 12.2065 19.7078 12.2064C19.7081 12.2061 19.7083 12.2059 19.7086 12.2056C19.7091 12.2051 19.7097 12.2045 19.7103 12.2039C19.7114 12.2028 19.7127 12.2014 19.7142 12.2C19.717 12.1971 19.7204 12.1936 19.7242 12.1897C19.7319 12.1818 19.7414 12.1718 19.7525 12.1599C19.7748 12.136 19.8038 12.104 19.8374 12.0649C19.9036 11.9876 19.9921 11.8771 20.0821 11.7422C20.2403 11.5049 20.5 11.0506 20.5 10.5H18.5C18.5 10.4494 18.5097 10.4951 18.4179 10.6328C18.3829 10.6854 18.3464 10.7312 18.3189 10.7633C18.3056 10.7788 18.2955 10.7898 18.2904 10.7952C18.2879 10.7979 18.2867 10.7992 18.287 10.7988C18.2872 10.7987 18.2877 10.7981 18.2887 10.7971C18.2892 10.7966 18.2898 10.796 18.2905 10.7953C18.2908 10.795 18.2912 10.7946 18.2916 10.7942C18.2918 10.794 18.292 10.7938 18.2922 10.7936C18.2923 10.7935 18.2925 10.7933 18.2926 10.7932C18.2927 10.7931 18.2929 10.7929 19 11.5ZM12.2567 4.83104L3.25671 14.831L4.74329 16.169L13.7433 6.16896L12.2567 4.83104ZM4 15.5C3.29289 14.7929 3.29272 14.7931 3.29254 14.7932C3.29248 14.7933 3.2923 14.7935 3.29218 14.7936C3.29193 14.7939 3.29168 14.7941 3.29141 14.7944C3.29089 14.7949 3.29033 14.7955 3.28974 14.7961C3.28856 14.7972 3.28726 14.7986 3.28582 14.8C3.28296 14.8029 3.27961 14.8064 3.27578 14.8103C3.26814 14.8182 3.25861 14.8282 3.24746 14.8401C3.22522 14.864 3.19619 14.896 3.16262 14.9351C3.09638 15.0124 3.00789 15.1229 2.91795 15.2578C2.75975 15.4951 2.5 15.9494 2.5 16.5H4.5C4.5 16.5506 4.49025 16.5049 4.58205 16.3672C4.61711 16.3146 4.65362 16.2688 4.68113 16.2367C4.69444 16.2212 4.70447 16.2102 4.70957 16.2048C4.71209 16.2021 4.7133 16.2008 4.71299 16.2012C4.71283 16.2013 4.71227 16.2019 4.71131 16.2029C4.71082 16.2034 4.71023 16.204 4.70953 16.2047C4.70918 16.205 4.70881 16.2054 4.7084 16.2058C4.7082 16.206 4.70799 16.2062 4.70778 16.2064C4.70767 16.2065 4.7075 16.2067 4.70745 16.2068C4.70728 16.2069 4.70711 16.2071 4 15.5ZM2.5 16.5C2.5 17.0506 2.75975 17.5049 2.91795 17.7422C3.00789 17.8771 3.09638 17.9876 3.16262 18.0649C3.19619 18.104 3.22522 18.136 3.24746 18.1599C3.25861 18.1718 3.26814 18.1818 3.27578 18.1897C3.27961 18.1936 3.28296 18.1971 3.28582 18.2C3.28726 18.2014 3.28856 18.2028 3.28974 18.2039C3.29033 18.2045 3.29089 18.2051 3.29141 18.2056C3.29168 18.2059 3.29193 18.2061 3.29218 18.2064C3.2923 18.2065 3.29248 18.2067 3.29254 18.2068C3.29272 18.2069 3.29289 18.2071 4 17.5C4.70711 16.7929 4.70728 16.7931 4.70745 16.7932C4.7075 16.7933 4.70767 16.7935 4.70778 16.7936C4.70799 16.7938 4.7082 16.794 4.7084 16.7942C4.70881 16.7946 4.70918 16.795 4.70953 16.7953C4.71023 16.796 4.71082 16.7966 4.71131 16.7971C4.71227 16.7981 4.71283 16.7987 4.71299 16.7988C4.7133 16.7992 4.71209 16.7979 4.70957 16.7952C4.70447 16.7898 4.69444 16.7788 4.68113 16.7633C4.65362 16.7312 4.61711 16.6854 4.58205 16.6328C4.49025 16.4951 4.5 16.4494 4.5 16.5H2.5ZM3.29289 18.2071L6.29289 21.2071L7.70711 19.7929L4.70711 16.7929L3.29289 18.2071Z" fill="white" mask="url(#path-2-outside-1)"/>
<path d="M12 20L5 13.5" stroke="white"/>
</svg>
