<svg width="24" height="24" viewBox="0 0 24 24" fill="none" xmlns="http://www.w3.org/2000/svg">
<path d="M18 13.5L11.5 7L14 4L21 10.5L18 13.5Z" fill="white" stroke="white" stroke-width="3" stroke-linejoin="round"/>
<mask id="path-2-outside-1" maskUnits="userSpaceOnUse" x="1" y="1" width="23" height="22" fill="black">
<rect fill="white" x="1" y="1" width="23" height="22"/>
<path d="M11.5 19.5H7.5L4.5 16.5C4.5 16.5 4 16 4 15.5C4 15 4.5 14.5 4.5 14.5L13.5 4.5C13.5 4.5 14 4 14.5 4C15 4 15.5 4.5 15.5 4.5L19.5 8.5C19.5 8.5 20 9 20 9.5C20 10 19.5 10.5 19.5 10.5L11.5 19.5Z"/>
</mask>
<path d="M22 22.5C22.8284 22.5 23.5 21.8284 23.5 21C23.5 20.1716 22.8284 19.5 22 19.5V22.5ZM10.5 22.5H22V19.5H10.5V22.5ZM7.5 19.5L5.37868 21.6213C5.94129 22.1839 6.70435 22.5 7.5 22.5V19.5ZM11.5 19.5V22.5C12.3569 22.5 13.1729 22.1336 13.7422 21.4931L11.5 19.5ZM13.5 4.5L11.3787 2.37868C11.3415 2.41586 11.3053 2.45402 11.2701 2.49311L13.5 4.5ZM19.5 10.5L17.3787 8.37868C17.3371 8.42023 17.2968 8.46299 17.2578 8.50691L19.5 10.5ZM4.5 14.5L6.62132 16.6213C6.6585 16.5841 6.6947 16.546 6.72988 16.5069L4.5 14.5ZM7.5 22.5H11.5V16.5H7.5V22.5ZM14.5 1C13.3483 1 12.4853 1.52924 12.1484 1.75385C11.9311 1.89868 11.756 2.03913 11.6336 2.14411C11.5708 2.19794 11.5177 2.24598 11.4755 2.28535C11.4543 2.30513 11.4356 2.32298 11.4195 2.33858C11.4114 2.34639 11.404 2.35365 11.3972 2.36034C11.3938 2.36369 11.3905 2.36689 11.3874 2.36995C11.3859 2.37148 11.3844 2.37297 11.3829 2.37443C11.3822 2.37515 11.3815 2.37587 11.3808 2.37658C11.3804 2.37693 11.3799 2.37746 11.3797 2.37764C11.3792 2.37816 11.3787 2.37868 13.5 4.5C15.6213 6.62132 15.6208 6.62184 15.6203 6.62235C15.6201 6.62252 15.6196 6.62304 15.6193 6.62337C15.6186 6.62405 15.6179 6.62473 15.6172 6.62539C15.6159 6.62673 15.6146 6.62804 15.6133 6.62933C15.6107 6.6319 15.6082 6.63439 15.6057 6.63679C15.6009 6.64159 15.5963 6.64605 15.592 6.65019C15.5835 6.65846 15.576 6.66557 15.5694 6.67168C15.5565 6.68371 15.5464 6.69269 15.5383 6.69964C15.5252 6.71087 15.5064 6.72632 15.4766 6.74615C15.4517 6.76275 15.3749 6.81239 15.247 6.86355C15.1252 6.91227 14.8639 7 14.5 7V1ZM15.5 4.5C17.6213 2.37868 17.6208 2.37816 17.6203 2.37764C17.6201 2.37746 17.6196 2.37693 17.6192 2.37658C17.6185 2.37587 17.6178 2.37515 17.6171 2.37443C17.6156 2.37297 17.6141 2.37148 17.6126 2.36995C17.6095 2.36689 17.6062 2.36369 17.6028 2.36034C17.596 2.35365 17.5886 2.34639 17.5805 2.33858C17.5644 2.32298 17.5457 2.30513 17.5245 2.28535C17.4823 2.24598 17.4292 2.19794 17.3664 2.14411C17.244 2.03913 17.0689 1.89868 16.8516 1.75385C16.5147 1.52924 15.6517 1 14.5 1V7C14.1361 7 13.8748 6.91227 13.753 6.86355C13.6251 6.81239 13.5483 6.76275 13.5234 6.74615C13.4936 6.72632 13.4748 6.71087 13.4617 6.69964C13.4536 6.69269 13.4435 6.68371 13.4306 6.67168C13.424 6.66557 13.4165 6.65846 13.408 6.65019C13.4037 6.64605 13.3991 6.64159 13.3943 6.63679C13.3918 6.63439 13.3893 6.6319 13.3867 6.62933C13.3854 6.62804 13.3841 6.62673 13.3828 6.62539C13.3821 6.62473 13.3814 6.62405 13.3807 6.62337C13.3804 6.62304 13.3799 6.62252 13.3797 6.62235C13.3792 6.62184 13.3787 6.62132 15.5 4.5ZM23 9.5C23 8.34826 22.4708 7.48532 22.2462 7.1484C22.1013 6.93115 21.9609 6.75603 21.8559 6.63356C21.8021 6.57076 21.754 6.51769 21.7147 6.47551C21.6949 6.45431 21.677 6.43559 21.6614 6.41947C21.6536 6.41141 21.6463 6.40396 21.6397 6.39717C21.6363 6.39377 21.6331 6.39053 21.6301 6.38745C21.6285 6.3859 21.627 6.3844 21.6256 6.38294C21.6248 6.38221 21.6241 6.38149 21.6234 6.38078C21.6231 6.38043 21.6225 6.3799 21.6224 6.37972C21.6218 6.3792 21.6213 6.37868 19.5 8.5C17.3787 10.6213 17.3782 10.6208 17.3776 10.6203C17.3775 10.6201 17.377 10.6196 17.3766 10.6193C17.3759 10.6186 17.3753 10.6179 17.3746 10.6172C17.3733 10.6159 17.372 10.6146 17.3707 10.6133C17.3681 10.6107 17.3656 10.6082 17.3632 10.6057C17.3584 10.6009 17.354 10.5963 17.3498 10.592C17.3415 10.5835 17.3344 10.576 17.3283 10.5694C17.3163 10.5565 17.3073 10.5464 17.3004 10.5383C17.2891 10.5252 17.2737 10.5064 17.2538 10.4766C17.2373 10.4517 17.1876 10.3749 17.1364 10.247C17.0877 10.1252 17 9.86386 17 9.5H23ZM21.6213 6.37868L17.6213 2.37868L13.3787 6.62132L17.3787 10.6213L21.6213 6.37868ZM13.7422 21.4931L21.7422 12.4931L17.2578 8.50691L9.25777 17.5069L13.7422 21.4931ZM19.5 10.5C21.6213 12.6213 21.6218 12.6208 21.6224 12.6203C21.6225 12.6201 21.6231 12.6196 21.6234 12.6192C21.6241 12.6185 21.6248 12.6178 21.6256 12.6171C21.627 12.6156 21.6285 12.6141 21.6301 12.6126C21.6331 12.6095 21.6363 12.6062 21.6397 12.6028C21.6463 12.596 21.6536 12.5886 21.6614 12.5805C21.677 12.5644 21.6949 12.5457 21.7147 12.5245C21.754 12.4823 21.8021 12.4292 21.8559 12.3664C21.9609 12.244 22.1013 12.0689 22.2462 11.8516C22.4708 11.5147 23 10.6517 23 9.5H17C17 9.13614 17.0877 8.8748 17.1364 8.75302C17.1876 8.62511 17.2373 8.54829 17.2538 8.5234C17.2737 8.49365 17.2891 8.47478 17.3004 8.46169C17.3073 8.45357 17.3163 8.44347 17.3283 8.43058C17.3344 8.42404 17.3415 8.41655 17.3498 8.408C17.354 8.40371 17.3584 8.39914 17.3632 8.39427C17.3656 8.39183 17.3681 8.38931 17.3707 8.38672C17.372 8.38542 17.3733 8.3841 17.3746 8.38276C17.3753 8.38209 17.3759 8.38142 17.3766 8.38074C17.377 8.3804 17.3775 8.37988 17.3776 8.37971C17.3782 8.3792 17.3787 8.37868 19.5 10.5ZM11.2701 2.49311L2.27012 12.4931L6.72988 16.5069L15.7299 6.50689L11.2701 2.49311ZM4.5 14.5C2.37868 12.3787 2.37816 12.3792 2.37764 12.3797C2.37746 12.3799 2.37693 12.3804 2.37658 12.3808C2.37587 12.3815 2.37515 12.3822 2.37443 12.3829C2.37297 12.3844 2.37148 12.3859 2.36995 12.3874C2.36689 12.3905 2.36369 12.3938 2.36034 12.3972C2.35365 12.404 2.34639 12.4114 2.33858 12.4195C2.32298 12.4356 2.30513 12.4543 2.28535 12.4755C2.24598 12.5177 2.19794 12.5708 2.14411 12.6336C2.03913 12.756 1.89868 12.9311 1.75385 13.1484C1.52924 13.4853 1 14.3483 1 15.5H7C7 15.8639 6.91227 16.1252 6.86355 16.247C6.81239 16.3749 6.76275 16.4517 6.74615 16.4766C6.72632 16.5064 6.71087 16.5252 6.69964 16.5383C6.69269 16.5464 6.68371 16.5565 6.67168 16.5694C6.66557 16.576 6.65846 16.5835 6.65019 16.592C6.64605 16.5963 6.64159 16.6009 6.63679 16.6057C6.63439 16.6082 6.6319 16.6107 6.62933 16.6133C6.62804 16.6146 6.62673 16.6159 6.62539 16.6172C6.62473 16.6179 6.62405 16.6186 6.62337 16.6193C6.62304 16.6196 6.62252 16.6201 6.62235 16.6203C6.62184 16.6208 6.62132 16.6213 4.5 14.5ZM1 15.5C1 16.6517 1.52924 17.5147 1.75385 17.8516C1.89868 18.0689 2.03913 18.244 2.14411 18.3664C2.19794 18.4292 2.24598 18.4823 2.28535 18.5245C2.30513 18.5457 2.32298 18.5644 2.33858 18.5805C2.34639 18.5886 2.35365 18.596 2.36034 18.6028C2.36369 18.6062 2.36689 18.6095 2.36995 18.6126C2.37148 18.6141 2.37297 18.6156 2.37443 18.6171C2.37515 18.6178 2.37587 18.6185 2.37658 18.6192C2.37693 18.6196 2.37746 18.6201 2.37764 18.6203C2.37816 18.6208 2.37868 18.6213 4.5 16.5C6.62132 14.3787 6.62184 14.3792 6.62235 14.3797C6.62252 14.3799 6.62304 14.3804 6.62337 14.3807C6.62405 14.3814 6.62473 14.3821 6.62539 14.3828C6.62673 14.3841 6.62804 14.3854 6.62933 14.3867C6.6319 14.3893 6.63439 14.3918 6.63679 14.3943C6.64159 14.3991 6.64605 14.4037 6.65019 14.408C6.65846 14.4165 6.66557 14.424 6.67168 14.4306C6.68371 14.4435 6.69269 14.4536 6.69964 14.4617C6.71087 14.4748 6.72632 14.4936 6.74615 14.5234C6.76275 14.5483 6.81239 14.6251 6.86355 14.753C6.91227 14.8748 7 15.1361 7 15.5H1ZM2.37868 18.6213L5.37868 21.6213L9.62132 17.3787L6.62132 14.3787L2.37868 18.6213Z" fill="white" mask="url(#path-2-outside-1)"/>
</svg>
