<svg width="24" height="24" viewBox="0 0 24 24" fill="none" xmlns="http://www.w3.org/2000/svg">
<path d="M20 2H8C7.47005 2.00158 6.96227 2.2128 6.58753 2.58753C6.2128 2.96227 6.00158 3.47005 6 4V16C6.00158 16.5299 6.2128 17.0377 6.58753 17.4125C6.96227 17.7872 7.47005 17.9984 8 18H20C20.5299 17.9984 21.0377 17.7872 21.4125 17.4125C21.7872 17.0377 21.9984 16.5299 22 16V4C21.9984 3.47005 21.7872 2.96227 21.4125 2.58753C21.0377 2.2128 20.5299 2.00158 20 2ZM11.5 9.5C11.5 9.89782 11.342 10.2794 11.0607 10.5607C10.7794 10.842 10.3978 11 10 11H9V13H7.5V7H10C10.3978 7 10.7794 7.15804 11.0607 7.43934C11.342 7.72064 11.5 8.10218 11.5 8.5V9.5ZM16.5 11.5C16.5 11.8978 16.342 12.2794 16.0607 12.5607C15.7794 12.842 15.3978 13 15 13H12.5V7H15C15.3978 7 15.7794 7.15804 16.0607 7.43934C16.342 7.72064 16.5 8.10218 16.5 8.5V11.5ZM20.5 8.5H19V9.5H20.5V11H19V13H17.5V7H20.5V8.5ZM9 9.5H10V8.5H9V9.5ZM4 6H2V20C2.00158 20.5299 2.2128 21.0377 2.58753 21.4125C2.96227 21.7872 3.47005 21.9984 4 22H18V20H4V6ZM14 11.5H15V8.5H14V11.5Z" fill="white"/>
</svg>
