<svg id="_6geometric" data-name="6geometric" xmlns="http://www.w3.org/2000/svg" width="24.813" height="24" viewBox="0 0 24.813 24">
  <path id="Caminho_66" data-name="Caminho 66" d="M0,0H24V24H0Z" fill="none"/>
  <path id="Caminho_67" data-name="Caminho 67" d="M11.108,3.395,7.428,9.409a.987.987,0,0,0,.841,1.5h7.35a.987.987,0,0,0,.841-1.5L12.79,3.395a.982.982,0,0,0-1.682,0Z" transform="translate(-2.94 -0.908)" fill="#fff"/>
  <circle id="Elipse_3" data-name="Elipse 3" cx="4.5" cy="4.5" r="4.5" transform="translate(10 12)" fill="#fff"/>
  <path id="Caminho_68" data-name="Caminho 68" d="M3.989,21.414H9.925a.992.992,0,0,0,.989-.989V14.489a.992.992,0,0,0-.989-.989H3.989A.992.992,0,0,0,3,14.489v5.935A.992.992,0,0,0,3.989,21.414Z" transform="translate(-1.905 -1)" fill="#fff"/>
  <path id="Caminho_84" data-name="Caminho 84" d="M9.593,3.207,7.37,6.841a.6.6,0,0,0,.508.909h4.441a.6.6,0,0,0,.508-.909L10.609,3.207a.593.593,0,0,0-1.016,0Z" transform="translate(32.094 17.295) rotate(180)" fill="#fff"/>
</svg>
