<svg width="24" height="24" viewBox="0 0 24 24" fill="none" xmlns="http://www.w3.org/2000/svg">
<path d="M21.0008 6.54005L21.0008 3.50005C21.0008 3.36744 20.9481 3.24026 20.8544 3.14649C20.7606 3.05272 20.6334 3.00005 20.5008 3.00005L17.4608 3.00005C17.3952 2.99918 17.3302 3.01209 17.2699 3.03793C17.2096 3.06376 17.1554 3.10196 17.1108 3.15005L6.19081 14.06L9.94081 17.81L20.8508 6.90005C20.8991 6.85347 20.9373 6.79749 20.9631 6.73558C20.9889 6.67366 21.0017 6.60712 21.0008 6.54005ZM3.29081 16.96C3.10456 17.1474 3.00002 17.4009 3.00002 17.665C3.00002 17.9292 3.10456 18.1827 3.29081 18.37L5.63081 20.71C5.81817 20.8963 6.07162 21.0008 6.33581 21.0008C6.59999 21.0008 6.85345 20.8963 7.04081 20.71L8.87081 18.88L5.12081 15.13L3.29081 16.96Z" fill="white"/>
<path d="M20.5 21C20.7761 21 21 20.7761 21 20.5C21 20.2239 20.7761 20 20.5 20V21ZM6.5 21H20.5V20H6.5V21Z" fill="white"/>
</svg>
