<svg id="audio" xmlns="http://www.w3.org/2000/svg" width="24" height="24" viewBox="0 0 24 24">
  <g id="Caminho_6" data-name="Caminho 6">
    <path id="Caminho_74" data-name="Caminho 74" d="M14,3a2.006,2.006,0,0,0-2,2v8.55A4,4,0,1,0,10,21a4.165,4.165,0,0,0,.649-.051A4.1,4.1,0,0,0,14,16.85V7h2a2,2,0,0,0,0-4H14" fill="#fff"/>
  </g>
  <g id="Caminho_9" data-name="Caminho 9" transform="translate(-2 11)">
    <path id="Caminho_75" data-name="Caminho 75" d="M17.972,10.49A1.478,1.478,0,0,1,16.5,9.01V7.5H14.99A1.492,1.492,0,0,1,13.5,6.01V5.971A1.5,1.5,0,0,1,14.99,4.5H16.5V2.98A1.487,1.487,0,0,1,17.99,1.5h.03A1.482,1.482,0,0,1,19.5,2.98V4.5h1.52A1.482,1.482,0,0,1,22.5,5.98v.04A1.482,1.482,0,0,1,21.02,7.5H19.5V9.01a1.482,1.482,0,0,1-1.48,1.48h-.048Z" fill="#fff"/>
    <path id="Caminho_76" data-name="Caminho 76" d="M17.99,2a.984.984,0,0,0-.99.98V5H14.99a1,1,0,0,0-.99.98v.03a.986.986,0,0,0,.99.99H17V9.01a.978.978,0,0,0,.972.98h.048A.982.982,0,0,0,19,9.01V7h2.02A.982.982,0,0,0,22,6.02V5.98A.982.982,0,0,0,21.02,5H19V2.98A.982.982,0,0,0,18.02,2h-.03m0-1h.03A1.982,1.982,0,0,1,20,2.98V4h1.02A1.982,1.982,0,0,1,23,5.98v.04A1.982,1.982,0,0,1,21.02,8H20V9.01a1.982,1.982,0,0,1-1.98,1.98h-.048A1.978,1.978,0,0,1,16,9.01V8H14.99A1.992,1.992,0,0,1,13,6.01V5.961A2,2,0,0,1,14.99,4H16V2.98A1.987,1.987,0,0,1,17.99,1Z" fill="#770888"/>
  </g>
  <path id="Caminho_5" data-name="Caminho 5" d="M0,0H24V24H0Z" fill="none"/>
</svg>
