<svg id="audio" xmlns="http://www.w3.org/2000/svg" width="24" height="24" viewBox="0 0 24 24">
  <g id="Caminho_6" data-name="Caminho 6">
    <path id="Caminho_74" data-name="Caminho 74" d="M14,3a2.006,2.006,0,0,0-2,2v8.55A4,4,0,1,0,10,21a4.165,4.165,0,0,0,.649-.051A4.1,4.1,0,0,0,14,16.85V7h2a2,2,0,0,0,0-4H14" fill="#fff" stroke="#fff" stroke-width="2"/>
  </g>
  <g id="Caminho_9" data-name="Caminho 9" transform="translate(-2.098 9.903)">
    <path id="Caminho_75" data-name="Caminho 75" d="M18.954,12.464a1.8,1.8,0,0,1-1.8-1.805V8.817H15.317A1.819,1.819,0,0,1,13.5,7V6.952a1.831,1.831,0,0,1,1.817-1.794h1.841V3.3a1.813,1.813,0,0,1,1.817-1.8h.037a1.807,1.807,0,0,1,1.8,1.8V5.159h1.854a1.807,1.807,0,0,1,1.8,1.8v.049a1.807,1.807,0,0,1-1.8,1.8H20.817v1.841a1.807,1.807,0,0,1-1.8,1.8h-.059Z" transform="translate(0.11 0.11)" fill="#fff"/>
    <path id="Caminho_76" data-name="Caminho 76" d="M19.085,2.22a1.2,1.2,0,0,0-1.207,1.2V5.878H15.427a1.216,1.216,0,0,0-1.207,1.2V7.11a1.2,1.2,0,0,0,1.207,1.207h2.451v2.451a1.192,1.192,0,0,0,1.185,1.2h.059a1.2,1.2,0,0,0,1.2-1.2V8.317h2.463a1.2,1.2,0,0,0,1.2-1.2V7.073a1.2,1.2,0,0,0-1.2-1.2H20.317V3.415a1.2,1.2,0,0,0-1.2-1.2h-.037m0-1.22h.037a2.417,2.417,0,0,1,2.415,2.415V4.659h1.244A2.417,2.417,0,0,1,25.2,7.073v.049a2.417,2.417,0,0,1-2.415,2.415H21.537v1.232a2.417,2.417,0,0,1-2.415,2.415h-.059a2.413,2.413,0,0,1-2.4-2.415V9.537H15.427A2.43,2.43,0,0,1,13,7.11V7.051a2.444,2.444,0,0,1,2.427-2.392h1.232V3.415A2.424,2.424,0,0,1,19.085,1Z" fill="#0e0e0e"/>
  </g>
  <path id="Caminho_5" data-name="Caminho 5" d="M0,0H24V24H0Z" fill="none"/>
</svg>
