<svg id="video" xmlns="http://www.w3.org/2000/svg" width="24" height="24" viewBox="0 0 24 24">
  <path id="Caminho_12" data-name="Caminho 12" d="M0,0H24V24H0Z" fill="none"/>
  <path id="Caminho_13" data-name="Caminho 13" d="M18,4l1.82,3.64A.252.252,0,0,1,19.6,8H17.62a.977.977,0,0,1-.89-.55L15,4H13l1.82,3.64A.252.252,0,0,1,14.6,8H12.62a.977.977,0,0,1-.89-.55L10,4H8L9.82,7.64A.252.252,0,0,1,9.6,8H7.62a1,1,0,0,1-.9-.55L5,4H4A2.006,2.006,0,0,0,2,6V18a2.006,2.006,0,0,0,2,2H20a2.006,2.006,0,0,0,2-2V5a1,1,0,0,0-1-1Z" fill="#fff"/>
  <g id="Caminho_25" data-name="Caminho 25" transform="translate(-0.819 10.182)">
    <path id="Caminho_81" data-name="Caminho 81" d="M18.7,11.962a1.72,1.72,0,0,1-1.713-1.723V8.482H15.234A1.736,1.736,0,0,1,13.5,6.748V6.7a1.748,1.748,0,0,1,1.734-1.712h1.757V3.222A1.73,1.73,0,0,1,18.725,1.5h.035a1.724,1.724,0,0,1,1.722,1.722V4.991h1.769a1.724,1.724,0,0,1,1.722,1.722V6.76a1.724,1.724,0,0,1-1.722,1.722H20.482V10.24a1.724,1.724,0,0,1-1.722,1.722H18.7Z" transform="translate(0.082 0.082)" fill="#fff"/>
    <path id="Caminho_82" data-name="Caminho 82" d="M18.807,2.164A1.145,1.145,0,0,0,17.655,3.3V5.655H15.316A1.16,1.16,0,0,0,14.164,6.8V6.83a1.147,1.147,0,0,0,1.152,1.152h2.339v2.339a1.138,1.138,0,0,0,1.131,1.141h.056a1.142,1.142,0,0,0,1.14-1.14V7.982h2.351a1.142,1.142,0,0,0,1.14-1.14V6.8a1.142,1.142,0,0,0-1.14-1.14H19.982V3.3a1.142,1.142,0,0,0-1.14-1.14h-.035m0-1.164h.035a2.307,2.307,0,0,1,2.3,2.3V4.491h1.187a2.307,2.307,0,0,1,2.3,2.3v.047a2.307,2.307,0,0,1-2.3,2.3H21.146v1.175a2.307,2.307,0,0,1-2.3,2.3h-.056a2.3,2.3,0,0,1-2.295-2.3V9.146H15.316A2.318,2.318,0,0,1,13,6.83V6.774a2.332,2.332,0,0,1,2.316-2.283h1.175V3.3A2.313,2.313,0,0,1,18.807,1Z" fill="#0e0e0e"/>
  </g>
</svg>
