<svg id="_1underline" data-name="1underline" xmlns="http://www.w3.org/2000/svg" width="24" height="24" viewBox="0 0 24 24">
  <path id="Caminho_32" data-name="Caminho 32" d="M0,0H24V24H0Z" fill="none"/>
  <path id="Caminho_33" data-name="Caminho 33" d="M12.79,16.95A6.138,6.138,0,0,0,18,10.79V4.25a1.25,1.25,0,0,0-2.5,0V10.9a3.555,3.555,0,0,1-2.77,3.52A3.494,3.494,0,0,1,8.5,11V4.25a1.25,1.25,0,0,0-2.5,0V11A6.006,6.006,0,0,0,12.79,16.95ZM5,20a1,1,0,0,0,1,1H18a1,1,0,0,0,0-2H6A1,1,0,0,0,5,20Z" fill="#262626"/>
</svg>
