<svg id="_3move" data-name="3move" xmlns="http://www.w3.org/2000/svg" width="24" height="24" viewBox="0 0 24 24">
  <path id="Caminho_52" data-name="Caminho 52" d="M0,0H24V24H0Z" fill="none"/>
  <path id="Caminho_53" data-name="Caminho 53" d="M10.5,9h3a.5.5,0,0,0,.5-.5V6h1.79a.5.5,0,0,0,.35-.85L12.35,1.36a.5.5,0,0,0-.71,0L7.85,5.15A.5.5,0,0,0,8.21,6H10V8.5A.5.5,0,0,0,10.5,9Zm-2,1H6V8.21a.5.5,0,0,0-.85-.35L1.36,11.65a.5.5,0,0,0,0,.71l3.79,3.79A.5.5,0,0,0,6,15.79V14H8.5a.5.5,0,0,0,.5-.5v-3A.5.5,0,0,0,8.5,10Zm14.15,1.65L18.86,7.86a.5.5,0,0,0-.86.35V10H15.5a.5.5,0,0,0-.5.5v3a.5.5,0,0,0,.5.5H18v1.79a.5.5,0,0,0,.85.35l3.79-3.79A.492.492,0,0,0,22.65,11.65ZM13.5,15h-3a.5.5,0,0,0-.5.5V18H8.21a.5.5,0,0,0-.35.85l3.79,3.79a.5.5,0,0,0,.71,0l3.79-3.79A.5.5,0,0,0,15.8,18H14V15.5a.5.5,0,0,0-.5-.5Z" fill="#fff"/>
</svg>
