<svg id="_5salvararquivo" data-name="5salvararquivo" xmlns="http://www.w3.org/2000/svg" width="24" height="24" viewBox="0 0 24 24">
  <path id="Caminho_64" data-name="Caminho 64" d="M0,0H24V24H0Z" fill="none"/>
  <path id="Caminho_65" data-name="Caminho 65" d="M17.59,3.59A2.006,2.006,0,0,0,16.17,3H5A2,2,0,0,0,3,5V19a2.006,2.006,0,0,0,2,2H19a2.006,2.006,0,0,0,2-2V7.83a1.966,1.966,0,0,0-.59-1.41L17.59,3.59ZM12,19a3,3,0,1,1,3-3A3,3,0,0,1,12,19ZM13,9H7A2,2,0,0,1,7,5h6a2,2,0,0,1,0,4Z" fill="#262626"/>
</svg>
