<svg id="_6boxtext" data-name="6boxtext" xmlns="http://www.w3.org/2000/svg" width="24" height="24" viewBox="0 0 24 24">
  <path id="Caminho_26" data-name="Caminho 26" d="M0,0H24V24H0Z" fill="none"/>
  <g id="Retângulo_2" data-name="Retângulo 2" transform="translate(0 2)" fill="none" stroke-linecap="round" stroke-linejoin="bevel">
    <path d="M3,0H21a3,3,0,0,1,3,3v7.312L14.341,20H3a3,3,0,0,1-3-3V3A3,3,0,0,1,3,0Z" stroke="none"/>
    <path d="M 3 2 C 2.448600769042969 2 2 2.448600769042969 2 3 L 2 17 C 2 17.55139923095703 2.448600769042969 18 3 18 L 13.51066589355469 18 L 22 9.485696792602539 L 22 3 C 22 2.448600769042969 21.55139923095703 2 21 2 L 3 2 M 3 0 L 21 0 C 22.65685081481934 0 24 1.343149185180664 24 3 L 24 10.31241035461426 L 14.3408203125 20 L 3 20 C 1.3431396484375 20 0 18.65685081481934 0 17 L 0 3 C 0 1.343149185180664 1.3431396484375 0 3 0 Z" stroke="none" fill="#fff"/>
  </g>
  <path id="Caminho_27" data-name="Caminho 27" d="M5.01,5.236A1.142,1.142,0,0,0,6.018,6.5h2.4v5.6c0,.5.682.9,1.338.9s1.288-.4,1.288-.9V6.5h2.45a1.214,1.214,0,0,0,1.1-1.259A1.19,1.19,0,0,0,13.493,4H6.019A1.119,1.119,0,0,0,5.01,5.236Z" transform="translate(-1 4)" fill="#fff"/>
  <path id="Linha_1" data-name="Linha 1" d="M2,0,0,2" transform="translate(20.5 18.5)" fill="none" stroke="#fff" stroke-linecap="round" stroke-width="2"/>
</svg>
