<svg id="_6photos" data-name="6photos" xmlns="http://www.w3.org/2000/svg" width="24" height="24" viewBox="0 0 24 24">
  <path id="Caminho_69" data-name="Caminho 69" d="M0,0H24V24H0Z" fill="none"/>
  <path id="Caminho_70" data-name="Caminho 70" d="M21.02,5H19V2.98A.982.982,0,0,0,18.02,2h-.03a.984.984,0,0,0-.99.98V5H14.99a1,1,0,0,0-.99.98v.03a.986.986,0,0,0,.99.99H17V9.01a.977.977,0,0,0,.99.98h.03A.982.982,0,0,0,19,9.01V7h2.02A.982.982,0,0,0,22,6.02V5.98A.982.982,0,0,0,21.02,5ZM16,9.01V8H14.99A1.981,1.981,0,0,1,13,5.98,1.921,1.921,0,0,1,13.27,5H5A2.006,2.006,0,0,0,3,7V19a2.006,2.006,0,0,0,2,2H17a2.006,2.006,0,0,0,2-2V10.72a2.048,2.048,0,0,1-1.02.28A2,2,0,0,1,16,9.01ZM15.96,19H6a.5.5,0,0,1-.4-.8l1.98-2.63a.505.505,0,0,1,.82.02L10,18l2.61-3.48a.5.5,0,0,1,.79-.01l2.95,3.68A.5.5,0,0,1,15.96,19Z" fill="#fff"/>
</svg>
