<svg id="_6text" data-name="6text" xmlns="http://www.w3.org/2000/svg" width="24" height="24" viewBox="0 0 24 24">
  <path id="Caminho_71" data-name="Caminho 71" d="M0,0H24V24H0Z" fill="none"/>
  <g id="Caminho_72" data-name="Caminho 72" fill="#fff">
    <path d="M 12 19.5 C 10.8971996307373 19.5 10 18.6028003692627 10 17.5 L 10 7.5 L 6.5 7.5 C 5.397200107574463 7.5 4.5 6.602799892425537 4.5 5.5 C 4.5 4.397200107574463 5.397200107574463 3.5 6.5 3.5 L 17.5 3.5 C 18.6028003692627 3.5 19.5 4.397200107574463 19.5 5.5 C 19.5 6.602799892425537 18.6028003692627 7.5 17.5 7.5 L 14 7.5 L 14 17.5 C 14 18.6028003692627 13.1028003692627 19.5 12 19.5 Z" stroke="none"/>
    <path d="M 6.5 4 C 5.670000076293945 4 5 4.670000076293945 5 5.5 C 5 6.329999923706055 5.670000076293945 7 6.5 7 L 10.5 7 L 10.5 17.5 C 10.5 18.32999992370605 11.17000007629395 19 12 19 C 12.82999992370605 19 13.5 18.32999992370605 13.5 17.5 L 13.5 7 L 17.5 7 C 18.32999992370605 7 19 6.329999923706055 19 5.5 C 19 4.670000076293945 18.32999992370605 4 17.5 4 L 6.5 4 M 6.5 3 L 17.5 3 C 18.87849998474121 3 20 4.121500015258789 20 5.5 C 20 6.878499984741211 18.87849998474121 8 17.5 8 L 14.5 8 L 14.5 17.5 C 14.5 18.87849998474121 13.37849998474121 20 12 20 C 10.62150001525879 20 9.5 18.87849998474121 9.5 17.5 L 9.5 8 L 6.5 8 C 5.121500015258789 8 4 6.878499984741211 4 5.5 C 4 4.121500015258789 5.121500015258789 3 6.5 3 Z" stroke="none" fill="#fff"/>
  </g>
</svg>
