<svg id="video" xmlns="http://www.w3.org/2000/svg" width="24" height="24" viewBox="0 0 24 24">
  <path id="Caminho_12" data-name="Caminho 12" d="M0,0H24V24H0Z" fill="none"/>
  <path id="Caminho_13" data-name="Caminho 13" d="M18,4l1.82,3.64A.252.252,0,0,1,19.6,8H17.62a.977.977,0,0,1-.89-.55L15,4H13l1.82,3.64A.252.252,0,0,1,14.6,8H12.62a.977.977,0,0,1-.89-.55L10,4H8L9.82,7.64A.252.252,0,0,1,9.6,8H7.62a1,1,0,0,1-.9-.55L5,4H4A2.006,2.006,0,0,0,2,6V18a2.006,2.006,0,0,0,2,2H20a2.006,2.006,0,0,0,2-2V5a1,1,0,0,0-1-1Z" fill="#fff"/>
  <g id="Caminho_25" data-name="Caminho 25" transform="translate(1 11)">
    <path id="Caminho_81" data-name="Caminho 81" d="M17.972,10.49A1.478,1.478,0,0,1,16.5,9.01V7.5H14.99A1.492,1.492,0,0,1,13.5,6.01V5.971A1.5,1.5,0,0,1,14.99,4.5H16.5V2.98A1.487,1.487,0,0,1,17.99,1.5h.03A1.482,1.482,0,0,1,19.5,2.98V4.5h1.52A1.482,1.482,0,0,1,22.5,5.98v.04A1.482,1.482,0,0,1,21.02,7.5H19.5V9.01a1.482,1.482,0,0,1-1.48,1.48h-.048Z" fill="#fff"/>
    <path id="Caminho_82" data-name="Caminho 82" d="M17.99,2a.984.984,0,0,0-.99.98V5H14.99a1,1,0,0,0-.99.98v.03a.986.986,0,0,0,.99.99H17V9.01a.978.978,0,0,0,.972.98h.048A.982.982,0,0,0,19,9.01V7h2.02A.982.982,0,0,0,22,6.02V5.98A.982.982,0,0,0,21.02,5H19V2.98A.982.982,0,0,0,18.02,2h-.03m0-1h.03A1.982,1.982,0,0,1,20,2.98V4h1.02A1.982,1.982,0,0,1,23,5.98v.04A1.982,1.982,0,0,1,21.02,8H20V9.01a1.982,1.982,0,0,1-1.98,1.98h-.048A1.978,1.978,0,0,1,16,9.01V8H14.99A1.992,1.992,0,0,1,13,6.01V5.961A2,2,0,0,1,14.99,4H16V2.98A1.987,1.987,0,0,1,17.99,1Z" fill="#4c0888"/>
  </g>
</svg>
